/* XPM */
static char *c706862c525f45a8c87589fcd891f119as9xRnSmE6JCOGJx[] = {
/* columns rows colors chars-per-pixel */
"16 16 64 1 ",
"  c None",
". c #640763",
"X c #630064",
"o c #630065",
"O c #650265",
"+ c #660265",
"@ c #660365",
"# c #640066",
"$ c #650066",
"% c #660066",
"& c #660067",
"* c #670067",
"= c #660167",
"- c #670167",
"; c #670266",
": c #660366",
"> c #670366",
", c #660267",
"< c #670267",
"1 c #670367",
"2 c #670466",
"3 c #670467",
"4 c #670567",
"5 c #670766",
"6 c #670767",
"7 c #680167",
"8 c #680567",
"9 c #670A66",
"0 c #680867",
"q c #690867",
"w c #680967",
"e c #680A66",
"r c #6A0B67",
"t c #670068",
"y c #670168",
"u c #670069",
"i c #670268",
"p c #670368",
"a c #670468",
"s c #680068",
"d c #680168",
"f c #680169",
"g c #680268",
"h c #690268",
"j c #680368",
"k c #680369",
"l c #690369",
"z c #69006A",
"x c #68016A",
"c c #6A006B",
"v c #69026A",
"b c #680568",
"n c #690569",
"m c #6A056A",
"M c #6A046B",
"N c #6B006C",
"B c #6A016C",
"V c #680868",
"C c #690869",
"Z c #690969",
"A c #6D0072",
"S c #6F0072",
"D c #710074",
"F c #740176",
/* pixels */
"      b8d&      ",
"    &&8&&NN4    ",
"   &88&    d&   ",
"  &    4D  F&u  ",
" d& b   u9 d&d4 ",
" &b r d4 N  X&u ",
"b8&d   9d b  d&q",
"8&8u    MZ    X8",
"d&8&d    au   b&",
"88&&89  & Z&Xbuq",
" d&8&udr  9  && ",
" &8&u  q &  &d& ",
"  d&   Ab  u4u  ",
"   8        &   ",
"    &A    Z4    ",
"         N      "
};
