/* XPM */
static char *_96d7707b50d43e1afa6af88add0074bWZFYrdpT9jTFptSP[] = {
/* columns rows colors chars-per-pixel */
"32 32 95 2 ",
"   c None",
".  c #650562",
"X  c #630064",
"o  c #630065",
"O  c #640065",
"+  c #650065",
"@  c #650364",
"#  c #660365",
"$  c #640066",
"%  c #650066",
"&  c #650067",
"*  c #660066",
"=  c #660166",
"-  c #660067",
";  c #670067",
":  c #660167",
">  c #670167",
",  c #650366",
"<  c #660266",
"1  c #670266",
"2  c #670366",
"3  c #660267",
"4  c #670267",
"5  c #670367",
"6  c #660765",
"7  c #670765",
"8  c #660466",
"9  c #670466",
"0  c #670566",
"q  c #660467",
"w  c #670467",
"e  c #660567",
"r  c #670567",
"t  c #660666",
"y  c #670667",
"u  c #670767",
"i  c #680267",
"p  c #680367",
"a  c #680566",
"s  c #680467",
"d  c #680567",
"f  c #680766",
"g  c #680667",
"h  c #680767",
"j  c #690767",
"k  c #670966",
"l  c #680866",
"z  c #680967",
"x  c #690B67",
"c  c #660068",
"v  c #670068",
"b  c #670168",
"n  c #670069",
"m  c #670268",
"M  c #670368",
"N  c #670468",
"B  c #670668",
"V  c #680068",
"C  c #680168",
"Z  c #680069",
"A  c #680169",
"S  c #680268",
"D  c #690368",
"F  c #680369",
"G  c #68006A",
"H  c #69006B",
"J  c #69026A",
"K  c #680468",
"L  c #690468",
"P  c #680568",
"I  c #690469",
"U  c #680668",
"Y  c #690668",
"T  c #690768",
"R  c #6A0768",
"E  c #6A0669",
"W  c #6A046B",
"Q  c #6B056B",
"!  c #6A076A",
"~  c #6B006C",
"^  c #6B026C",
"/  c #6B036C",
"(  c #6C006E",
")  c #6C076C",
"_  c #690868",
"`  c #690968",
"'  c #680869",
"]  c #6A0869",
"[  c #6A0969",
"{  c #690A68",
"}  c #6A0A69",
"|  c #6C0A6B",
" . c #6A0F69",
".. c #6C0C6B",
"X. c #6E0271",
/* pixels */
"                            a F R a                             ",
"                      R v - - i - i - v r                       ",
"                  - i - - - i - - - - - i v i                   ",
"              r - i - i - i - i - r R {     - i a               ",
"            F - - - - - - {                 N - v F             ",
"          - F - r     r a v l               a - i - -           ",
"        F - -             R - - a           { v - i v v         ",
"      - F F                   - - R           v i - - v R       ",
"      F - a                     { o /     F } - - i i - F       ",
"    i - - r   R v r - r r         R v R     F v i - - i i -     ",
"    F - v -   . -       R v         R v       v - - i - v v     ",
"  a - i i -     -    .r a F F F       r -       - i - i - v a   ",
"  i - i - i a   r             F N       F a       a - - i - i   ",
"  - i - i - - r /     ^ ^       - v       N         l - - i i   ",
"R - - i - i - - /                 o ..      -         F - i - { ",
"- i i - i - i - -                   v R                 - - i - ",
"a - - i - i - i -                     o R               l F - i ",
"a - i - i - i - - R                     - r R r         ) - - { ",
"  i - i - i - i - - -           R a       N - - F - r     - -   ",
"  - i - i - i - - i - r       F - {       - k     l -   a - -   ",
"  a v v - i - i i - i -   a v a   -     R v         v i - - l   ",
"    F - i - i - - i - i i - r         k -         F - - i -     ",
"    i v - i - i - - i       -       - v         r v - i F F     ",
"      F i - i - i r         i     - -         a - - i - i       ",
"      r - - i r             F - v R         - - i a - i R       ",
"        F i - a           k F r         { v {     r - i         ",
"          - i -                                 r i -           ",
"            R - F                             - - F             ",
"              a v -                         v v a               ",
"                  a v r                 R v r                   ",
"                      r X.            r N                       ",
"                                    |                           "
};
