/* XPM */
static char *a76fc8dd349a49fbbe3ddadc49d7de22BWgdiZDTolM7nCnD[] = {
/* columns rows colors chars-per-pixel */
"64 64 188 2 ",
"   c None",
".  c #5E0D57",
"X  c #630063",
"o  c #640263",
"O  c #650263",
"+  c #630461",
"@  c #620064",
"#  c #630064",
"$  c #630065",
"%  c #640064",
"&  c #650064",
"*  c #640164",
"=  c #650164",
"-  c #640065",
";  c #650065",
":  c #650165",
">  c #660065",
",  c #660165",
"<  c #650364",
"1  c #650265",
"2  c #660265",
"3  c #640066",
"4  c #650066",
"5  c #650166",
"6  c #650067",
"7  c #660066",
"8  c #670066",
"9  c #660166",
"0  c #670166",
"q  c #660067",
"w  c #670067",
"e  c #660167",
"r  c #670167",
"t  c #650266",
"y  c #660266",
"u  c #670266",
"i  c #660366",
"p  c #670366",
"a  c #660267",
"s  c #670267",
"d  c #660367",
"f  c #670367",
"g  c #650464",
"h  c #660465",
"j  c #670565",
"k  c #650664",
"l  c #660764",
"z  c #660765",
"x  c #670765",
"c  c #670466",
"v  c #670566",
"b  c #670467",
"n  c #670567",
"m  c #670666",
"M  c #670766",
"N  c #660667",
"B  c #670667",
"V  c #670767",
"C  c #680067",
"Z  c #680167",
"A  c #680366",
"S  c #680267",
"D  c #680367",
"F  c #680466",
"G  c #680566",
"H  c #680467",
"J  c #680567",
"K  c #690567",
"L  c #680666",
"P  c #680766",
"I  c #680667",
"U  c #690667",
"Y  c #680767",
"T  c #690767",
"R  c #650961",
"E  c #650864",
"W  c #670965",
"Q  c #660A64",
"!  c #670A65",
"~  c #670866",
"^  c #670966",
"/  c #670A66",
"(  c #670C64",
")  c #680866",
"_  c #680966",
"`  c #680867",
"'  c #690867",
"]  c #680967",
"[  c #690967",
"{  c #680A66",
"}  c #680A67",
"|  c #690A67",
" . c #680B67",
".. c #690B67",
"X. c #6A0B67",
"o. c #680C65",
"O. c #680C66",
"+. c #690C67",
"@. c #690D67",
"#. c #640069",
"$. c #660068",
"%. c #670068",
"&. c #670168",
"*. c #670069",
"=. c #670268",
"-. c #670368",
";. c #670269",
":. c #670468",
">. c #680068",
",. c #680168",
"<. c #690168",
"1. c #680069",
"2. c #690069",
"3. c #680169",
"4. c #680268",
"5. c #680368",
"6. c #680269",
"7. c #690269",
"8. c #680369",
"9. c #68006A",
"0. c #69006A",
"q. c #69016A",
"w. c #69036B",
"e. c #6A026B",
"r. c #680468",
"t. c #690468",
"y. c #680568",
"u. c #690568",
"i. c #680469",
"p. c #690469",
"a. c #680668",
"s. c #690668",
"d. c #680768",
"f. c #690768",
"g. c #690669",
"h. c #690769",
"j. c #6A0769",
"k. c #6A046A",
"l. c #6A056A",
"z. c #6B046B",
"x. c #6A066A",
"c. c #6B066A",
"v. c #6A076A",
"b. c #6B066B",
"n. c #6C066B",
"m. c #6B016C",
"M. c #6E046F",
"N. c #680868",
"B. c #690868",
"V. c #680968",
"C. c #690968",
"Z. c #680869",
"A. c #6A0868",
"S. c #6A0968",
"D. c #6A0869",
"F. c #6A0969",
"G. c #690A68",
"H. c #680B68",
"J. c #690B68",
"K. c #690A69",
"L. c #6A0A68",
"P. c #6A0B68",
"I. c #6A0A69",
"U. c #6B0B69",
"Y. c #6A096A",
"T. c #6B096B",
"R. c #6B0A6A",
"E. c #6C0A6B",
"W. c #6A0C68",
"Q. c #6A0D68",
"!. c #6A0C69",
"~. c #690F68",
"^. c #6B0E69",
"/. c #6B0C6A",
"(. c #6B0D6A",
"). c #6B0D6B",
"_. c #6C0C6B",
"`. c #6C086D",
"'. c #6D0D6C",
"]. c #6B1367",
"[. c #6B106A",
"{. c #6E176A",
"}. c #6E106C",
"|. c #71166E",
" X c #6E0570",
".X c #700473",
"XX c #720375",
"oX c #720B73",
/* pixels */
"                                                                                                                                ",
"                                                        A.b A.A.i.A.b !.                                                        ",
"                                              :.:.:.w w 3 w w w w w w w w w b i.                                                ",
"                                          P &.&.w w w w w w w w <.w w w w w w w w &.P                                           ",
"                                    P w w w w w w w w w w w w w w w w w w w w w w w w &.b A.                                    ",
"                                H.w &.w w w w w w w w w w w w w w w w w w w w w w &.&.&.w w w                                   ",
"                              b w w w w w w w w w w w w w w w w w w &.w w w b :.P A.  b w w w w i.                              ",
"                          ^ w w w w w w w w w w w w w w w w w b b :.P +.                &.w w w w w                             ",
"                        !.w w w w w w w w w w w w P b i.A.                              P &.w w w w w !.                        ",
"                      w &.w w w w w &.w w w w w w i.                                    b &.w w w w w &.P                       ",
"                    b w w w w w &.w &.P b w A &.w w w b )                               ) &.w w w w w w &.o                     ",
"                  w.w w w w w w P             ^ b w w w w &.!.                            w w w w w w w &.&.A.                  ",
"                ) w w w w w b                       P &.w w w b                           <.w w w w w w w w w ^                 ",
"              i.&.w w w w ^                             :.w w w w A.                      P w w w w w w w w w w                 ",
"              &.w w w &.i.                                A.w w w w 3                     b w w w w w w w w w w b               ",
"            <.&.w w w &.                                      &.w w w H.            w.    [.w w w w w w w w w w w i.            ",
"          +.&.w w w w w                                         b w w w b           b w     w w w w w w w w w w w w             ",
"          <.w w w w w A.            ^ ( ^                         ) 3 w w i.          &.w   b w w w w w w w w w w w &.          ",
"        ^ &.w w w w w k       b.b w &.w w w w P                     :.&.w w A.        P w w w w w w w w w w w w w w &.          ",
"        <.&.w w w w w P     b <.&.w A.H.H.w w &.w b                   {.3 w &.          &.w w w w w w w w w w w w w w &.        ",
"      ^ &.w w w w w &.w     ) R w ^             b w w A.                '.w w &.          w &.w w w w w w w w w w w w &.        ",
"      &.&.w w w w w &.3         <._.              !.b w &.                k w w i.          i.w w w w w w w w w w w w &.b       ",
"      <.w w w w w w &.&.        &.&.      H.w <.w ) b w w w !.              A.w <.            w w &.w w w w w w w w w w w       ",
"    ) &.w w w w w w &.<.b       w 3     b w w w w w &.b w w &.k               w <.i.            ^ &.w w w w w w w w w w &.      ",
"    b w w w w w w w w w w       w :.    w.                w w w !.              i.w b               b w w w w w w w w w &.P     ",
"    :.w w w w w w w w w w w     w T.                        A.w &.+.              <.&.                w 3 w w w w w w w w P     ",
"    <.w w w w w w w w w w w !.  w n.      n.A.A w i.          w w w b               3 <.                b w w w w w w w w w     ",
"    w w w w w w w w w w w w w :.w i.      i.w i.!.              w w &.)               <.b                 ) w w w w w w w w     ",
"  !.3 w w w w w w w w w w w w w 3 )         )                     <.w 3 i.              &.i.                w w w w w w w w     ",
"  A.w w w w w w w w w w w w w w w A.                                o w b                 &.                  w w w w w w w !.  ",
"  w w w w w w w w w w w w w w w w i.                                  &.o w                 &.                P &.w w w w <.w   ",
"  ) w w w w w w w w w w w w w w &.o                                     w w w i.                                <.w w w w w ^   ",
"  ) w w w w w w w w w w w w w w &.:.                                      w w w H.                              P &.w w w &.^   ",
"  o w w w w w w w w w w w w w w w <.A.                                      :.w w &.                            ^ <.w w w &.w   ",
"  A.3 w w w w w w w w w w w w w w w 3 A.                                      b w w w b                           w w w w w !.  ",
"  !.w w w w w w w w w w w w w w w w w w i.                          i.            b w w w w :.b w w w i.i.n.      w w w w &.    ",
"    w w w w w w w w w w w w w w w w w w &.)                       b w                 P w w w w A <.w w b n.      w w w w w     ",
"    &.w w w w w w w w w w w w w w w w w w &.                    ^ w b                 i.w w ( i.w w w w A.        w w w w w     ",
"    &.w w w w w w w w w w w w w w w w w w w &.                w &.&.w               b &.&.        A.w w &.w       w w w &.P     ",
"    w &.w w w w w w w w w w w w w w w w w &.&.)           b w &.w w &.            !.&.&.b             ^ &.w w A.i.w w w &.b     ",
"    +.w w w w w w w w w w w w w w w w w w w w b       A.b w w A.  b w             w w &.                w w w w w w w w w       ",
"      &.w w w w w w w w w w w w w w w w w w w w <.P w w w w       ].b           w w &.                &.w w w w w w w w w       ",
"      w &.w w w w w w w w w w w w w w w w w w w w w w w w ^         P         b w w                 ^ w w w w w w w w w ^       ",
"      ^ &.w w w w w w w w w w w w w w w w w w w w i.^ w w b                 3 w w )                 w w w w w w w w w w         ",
"        <.w w w w w w w w w w w w w w w w w           ^ w w               i.w w !.                &.&.w w w w w w &.&.<.        ",
"        ^ &.w w w w w w w w w w w w w w 3 )             &.<.            w w w !.                &.&.w w w w w w w &.&.          ",
"          <.w w w w w w w w w w w w w 3 }.              &.&.        <.w w w                   w &.w w w w w w w w w A           ",
"          b &.w w w w w w w w w w w w b                 w w       i.w w w                   :.w w w w w w w w w w &.            ",
"            i.&.&.w w w w w w w &.w                     :.w b ^ &.w w b                 ^ w w w w w w w w w w w w P             ",
"              &.w w w w w w &.^                         w &.w w w b                   :.&.w w &.w w   P w w w w &.              ",
"              A.w w w w w w <.                          &.&.&.i.A.                <.b w w w i.P     A.w w w &.&.                ",
"                ) &.w w w w w b                       &.<.)                     {.^                 &.w w w w A.                ",
"                  i.w w w w w w P                   i.                                            w w w w w !.                  ",
"                    o w w w w w &.                                                              &.&.w w w 3                     ",
"                      i.&.w w w w &.                                                          &.&.w w w b                       ",
"                        A.w w w w &.w                                                       <.&.&.w w !.                        ",
"                          A.<.w w w &.w                                                   w w w w &.                            ",
"                              b w w w w A                                             A.w w w w P                               ",
"                                A.w w &.&.w                                         :.w w w b                                   ",
"                                    ^ P w w &.^                                 A.w w w b                                       ",
"                                          b w w :.                            &.&.w i.                                          ",
"                                              A.P w XX                  .XP w b                                                 ",
"                                                                      . oX                                                      ",
"                                                                                                                                "
};
